<svg xmlns="http://www.w3.org/2000/svg" viewBox="0 0 512 512">
  <g fill="none" stroke="#000" stroke-width="28" stroke-linecap="round" stroke-linejoin="round">
    <path d="M108 76 L404 76 L464 142 L372 220 L284 220 L284 170 L108 170 Z"/>
    <path d="M108 76 L284 220"/>
    <path d="M284 220 L372 142"/>
    <path d="M284 170 L284 220"/>
    <path d="M284 220 L348 460 L232 460 L176 354"/>
    <path d="M176 354 L284 220"/>
    <path d="M348 460 L404 352"/>
    <path d="M404 352 L284 220"/>
    <path d="M108 170 L176 354"/>
    <path d="M210 154 L357 134"/>
    <path d="M132 92 L276 104"/>
    <path d="M172 310 L312 148"/>
    <path d="M216 390 L352 294"/>
  </g>
</svg>
